<svg xmlns="http://www.w3.org/2000/svg" xmlns:xlink="http://www.w3.org/1999/xlink" x="0px" y="0px" width="400px" height="400px" viewBox="0 0 400 400" xml:space="preserve"> <g id="Calque_2" display="none"> <rect display="inline" fill="#084287" width="400" height="400"></rect> </g> <g id="Black"> <g> <g id="background_1_"> <path fill="none" stroke="#000000" stroke-width="15" stroke-miterlimit="10" d="M200,50c82.695,0,150,66.938,150,150 c0,82.799-67.066,150-150,150c-82.801,0-150-67.064-150-150C50,116.867,117.368,50,200,50"></path> </g> <path d="M246.497,195.448v-0.468c13.343-6.841,21.683-20.272,21.683-37.079c0-18.534-9.989-32.694-23.682-38.792 c-8.541-3.882-17.767-5.126-30.219-5.126h-6.445V99.92c0-2.782-2.194-5.001-4.979-5.001h-14.389c-2.782,0-4.991,2.22-4.991,5.001 v14.063h-16.175V99.92c0-2.782-2.218-5.001-4.98-5.001h-14.403c-2.737,0-5.002,2.22-5.002,5.001v14.063H128.19 c-1.752,0-3.148,1.415-3.148,3.149v13.718c0,1.733,1.396,3.131,3.148,3.131h14.722v132.147h-13.899 c-2.214,0-4.027,1.771-4.014,4.033l0.042,11.998c0,2.227,1.806,4.043,4.027,4.043h13.843v13.855c0,2.74,2.265,5.023,5.002,5.023 h14.403c2.762,0,4.98-2.283,4.98-5.023v-13.855h16.175v13.855c0,2.74,2.209,5.023,4.991,5.023h14.389 c2.785,0,4.979-2.283,4.979-5.023v-13.855h9.618c9.507,0,17.544-0.518,25.829-3.223c17.834-6.066,31.719-23.143,31.719-45.85 C275,217.65,264.961,200.805,246.497,195.448 M214.279,133.981c7.324,0,12.89,0.997,17.79,3.436 c7.311,4.142,11.212,12.672,11.212,22.682c0,15.613-9.747,26.315-25.338,26.315h-50.645v-52.433H214.279z M233.762,263.754 c-4.612,1.941-10.459,2.395-15.381,2.395l-51.082-0.02v-59.689l53.08-0.033c18.07,0,29.768,11.695,29.768,29.553 C250.146,248.846,243.766,259.563,233.762,263.754"></path> </g> </g> <g id="Grey" display="none"> <g display="inline"> <g id="background_2_"> <path fill="none" stroke="#8B8B8B" stroke-width="15" stroke-miterlimit="10" d="M200,50c82.695,0,150,66.938,150,150 c0,82.799-67.066,150-150,150c-82.801,0-150-67.064-150-150C50,116.867,117.368,50,200,50"></path> </g> <path fill="#8B8B8B" d="M246.497,195.448v-0.468c13.343-6.841,21.683-20.272,21.683-37.079c0-18.534-9.989-32.694-23.682-38.792 c-8.541-3.882-17.767-5.126-30.219-5.126h-6.445V99.92c0-2.782-2.194-5.001-4.979-5.001h-14.389c-2.782,0-4.991,2.22-4.991,5.001 v14.063h-16.175V99.92c0-2.782-2.218-5.001-4.98-5.001h-14.403c-2.737,0-5.002,2.22-5.002,5.001v14.063H128.19 c-1.752,0-3.148,1.415-3.148,3.149v13.718c0,1.733,1.396,3.131,3.148,3.131h14.722v132.147h-13.899 c-2.214,0-4.027,1.771-4.014,4.033l0.042,11.998c0,2.227,1.806,4.043,4.027,4.043h13.843v13.855c0,2.74,2.265,5.023,5.002,5.023 h14.403c2.762,0,4.98-2.283,4.98-5.023v-13.855h16.175v13.855c0,2.74,2.209,5.023,4.991,5.023h14.389 c2.785,0,4.979-2.283,4.979-5.023v-13.855h9.618c9.507,0,17.544-0.518,25.829-3.223c17.834-6.066,31.719-23.143,31.719-45.85 C275,217.65,264.961,200.805,246.497,195.448 M214.279,133.981c7.324,0,12.89,0.997,17.79,3.436 c7.311,4.142,11.212,12.672,11.212,22.682c0,15.613-9.747,26.315-25.338,26.315h-50.645v-52.433H214.279z M233.762,263.754 c-4.612,1.941-10.459,2.395-15.381,2.395l-51.082-0.02v-59.689l53.08-0.033c18.07,0,29.768,11.695,29.768,29.553 C250.146,248.846,243.766,259.563,233.762,263.754"></path> </g> </g> </svg>